HIERARCHY
ROOT Hips
{
	OFFSET 0.000000 0.000000 0.000000 
	CHANNELS 6 Xposition Yposition Zposition Zrotation Yrotation Xrotation
	JOINT LeftUpLeg
	{
		OFFSET 1.363060 -1.794630 0.839290 
		CHANNELS 3 Zrotation Yrotation Xrotation
		JOINT LeftLeg
		{
			OFFSET 2.448110 -6.726130 0.000000 
			CHANNELS 3 Zrotation Yrotation Xrotation
			JOINT LeftFoot
			{
				OFFSET 2.562200 -7.039590 0.000000 
				CHANNELS 3 Zrotation Yrotation Xrotation
				JOINT LeftToeBase
				{
					OFFSET 0.157640 -0.433110 2.322550 
					CHANNELS 3 Zrotation Yrotation Xrotation
					End Site
					{
						OFFSET 0.000000 0.000000 0.000000 
					}
				}
			}
		}
	}
	JOINT RightUpLeg
	{
		OFFSET -1.305520 -1.794630 0.839290 
		CHANNELS 3 Zrotation Yrotation Xrotation
		JOINT RightLeg
		{
			OFFSET -2.542530 -6.985550 0.000000 
			CHANNELS 3 Zrotation Yrotation Xrotation
			JOINT RightFoot
			{
				OFFSET -2.568260 -7.056230 0.000000 
				CHANNELS 3 Zrotation Yrotation Xrotation
				JOINT RightToeBase
				{
					OFFSET -0.164730 -0.452590 2.363150 
					CHANNELS 3 Zrotation Yrotation Xrotation
					End Site
					{
						OFFSET 0.000000 0.000000 0.000000 
					}
				}
			}
		}
	}
	JOINT Spine
	{
		OFFSET 0.028270 2.035590 -0.193380 
		CHANNELS 3 Zrotation Yrotation Xrotation
		JOINT Spine1
		{
			OFFSET 0.056720 2.048850 -0.042750 
			CHANNELS 3 Zrotation Yrotation Xrotation
			JOINT Neck1
			{
				OFFSET -0.054170 1.746240 0.172020 
				CHANNELS 3 Zrotation Yrotation Xrotation
				JOINT Head
				{
					OFFSET 0.104070 1.761360 -0.123970 
					CHANNELS 3 Zrotation Yrotation Xrotation
					End Site
					{
						OFFSET 0.000000 0.000000 0.000000 
					}
				}
			}
			JOINT LeftArm
			{
				OFFSET 3.362410 1.200890 -0.311210 
				CHANNELS 3 Zrotation Yrotation Xrotation
				JOINT LeftForeArm
				{
					OFFSET 4.983000 -0.000000 -0.000000 
					CHANNELS 3 Zrotation Yrotation Xrotation
					JOINT LeftHand
					{
						OFFSET 3.483560 -0.000000 -0.000000 
						CHANNELS 3 Zrotation Yrotation Xrotation
						JOINT LeftHandIndex1
						{
							OFFSET 0.715260 -0.000000 -0.000000 
							CHANNELS 3 Zrotation Yrotation Xrotation
							End Site
							{
								OFFSET 0.000000 0.000000 0.000000 
							}
						}
					}
				}
			}
			JOINT RightArm
			{
				OFFSET -3.136600 1.374050 -0.404650 
				CHANNELS 3 Zrotation Yrotation Xrotation
				JOINT RightForeArm
				{
					OFFSET -5.241900 -0.000000 -0.000000 
					CHANNELS 3 Zrotation Yrotation Xrotation
					JOINT RightHand
					{
						OFFSET -3.444170 -0.000000 -0.000000 
						CHANNELS 3 Zrotation Yrotation Xrotation
						JOINT RightHandIndex1
						{
							OFFSET -0.622530 -0.000000 -0.000000 
							CHANNELS 3 Zrotation Yrotation Xrotation
							End Site
							{
								OFFSET 0.000000 0.000000 0.000000 
							}
						}
					}
				}
			}
		}
	}
}
MOTION
Frames: 15
Frame Time: 0.041667
1.767862 17.650929 -22.177097 3.316775 7.199192 2.492523 -27.904792 -4.834487 6.110027 -0.180263 5.345275 15.197926 0.994135 -2.899367 -9.029430 0.304900 3.549900 9.813600 12.260700 11.764336 -29.719939 -0.465051 -6.292527 16.373801 1.613213 -13.938471 -13.126711 -0.076400 -1.783000 4.906200 0.386528 -4.474586 -1.218634 3.663335 -2.720042 -0.147238 2.912865 -1.896460 10.473905 -0.815200 -0.819800 8.146000 -84.567173 5.349333 25.550849 24.119122 -36.365872 -7.971269 0.402124 -0.264075 2.335885 -7.125000 0.000000 0.000000 85.829028 -9.693999 -20.164796 -6.122423 11.418911 -0.272441 1.096942 -0.068968 11.393571 7.125000 0.000000 0.000000 
1.759995 17.643573 -22.086676 3.037745 6.891552 2.624086 -27.557340 -4.557331 6.323376 -0.223199 5.218800 14.855453 0.893672 -2.377326 -8.859974 0.263000 3.298900 9.112200 12.527680 12.111846 -30.102448 -0.408629 -6.161959 15.955622 1.740091 -14.662736 -13.323647 -0.042400 -1.329000 3.654600 0.456275 -4.166620 -1.218010 3.859528 -2.571017 -0.193769 3.063129 -1.832942 10.342600 -0.774600 -0.774000 8.075000 -84.631879 5.330777 26.014336 23.859680 -36.086238 -7.796424 0.398233 -0.267511 2.362623 -7.125000 0.000000 0.000000 85.720889 -9.542335 -23.092359 -5.912456 11.065346 -0.222909 1.091204 -0.143651 13.949607 7.125000 0.000000 0.000000 
1.754682 17.631006 -21.981031 3.230381 6.860585 2.811531 -27.692586 -4.291153 6.671582 -0.262018 5.047040 14.385192 0.927630 -2.537293 -8.979339 0.243700 3.177000 8.772000 12.242551 12.084385 -30.361356 -0.391918 -6.117324 15.818960 1.700370 -14.538021 -13.734926 -0.034400 -1.197600 3.292600 0.489749 -4.180363 -1.197158 4.056638 -2.590900 -0.090761 3.101160 -1.792947 10.113338 -0.739900 -0.769000 8.027700 -84.963257 5.421345 25.639097 23.588088 -35.814069 -7.654023 0.400515 -0.267105 2.784233 -7.125000 0.000000 0.000000 85.451057 -9.832600 -21.332979 -6.048592 11.297128 -0.255616 1.092684 -0.099796 12.202554 7.125000 0.000000 0.000000 
1.746917 17.625080 -21.886625 3.206164 6.845949 2.901539 -27.598201 -4.196937 6.990900 -0.285184 4.966096 14.175135 0.837161 -2.144307 -8.643780 0.218300 3.008100 8.301200 12.383414 11.847659 -30.650723 -0.373020 -6.060257 15.637297 1.824000 -15.112079 -13.296727 -0.040300 -1.295500 3.562300 0.521714 -4.187121 -1.243515 4.109098 -2.579788 -0.368702 3.168863 -1.792476 10.001583 -0.663500 -0.779000 7.912500 -85.221287 5.663205 25.397758 23.334781 -35.523244 -7.493085 0.397843 -0.270758 2.861669 -7.125000 0.000000 0.000000 85.185040 -9.752106 -23.459248 -5.752852 10.732288 -0.178142 1.099518 -0.164717 14.469354 7.125000 0.000000 0.000000 
1.746202 17.618746 -21.775463 3.459861 6.806635 2.956206 -27.822670 -3.935923 7.491470 -0.308158 4.825038 13.798702 0.885489 -2.413207 -8.709515 0.217700 3.003700 8.289100 12.243609 11.393518 -30.853271 -0.396764 -6.123357 15.824865 1.760856 -14.772206 -13.262901 -0.059300 -1.571000 4.321400 0.542508 -4.096051 -1.214863 4.342806 -2.551798 -0.279190 3.283385 -1.922621 10.065916 -0.654300 -0.824400 8.049500 -85.446046 5.699018 25.403262 22.912616 -35.080556 -7.263103 0.395204 -0.274376 3.238260 -7.125000 0.000000 0.000000 84.988042 -9.909802 -22.781316 -5.843604 10.880242 -0.208213 1.089063 -0.102252 13.501923 7.125000 0.000000 0.000000 
1.742728 17.605770 -21.681569 3.463423 6.697967 3.191638 -27.862730 -4.162173 7.835478 -0.347805 4.714067 13.491939 0.767207 -1.846557 -8.399073 0.204900 2.914400 8.040600 12.180781 11.495505 -31.395258 -0.424001 -6.244980 16.134794 1.812623 -14.997596 -12.955030 -0.079100 -1.814400 4.993000 0.575717 -3.972264 -1.164532 4.400986 -2.503833 -0.047396 2.970226 -2.198954 10.091664 -0.867600 -0.973300 8.090100 -85.613405 5.631518 25.416283 22.723671 -34.884986 -7.150800 0.397196 -0.276041 3.227364 -7.125000 0.000000 0.000000 84.868298 -9.440846 -25.515234 -5.641765 10.549292 -0.161430 1.089413 -0.154980 16.030309 7.125000 0.000000 0.000000 
1.732102 17.603216 -21.572041 3.370198 6.642684 3.223723 -27.613398 -3.976951 8.174107 -0.344034 4.695151 13.458324 0.828109 -2.088501 -8.701620 0.230900 3.092500 8.536300 12.392847 11.502595 -31.343122 -0.436204 -6.307192 16.307980 1.906392 -15.475129 -12.856123 -0.046700 -1.394100 3.833800 0.636518 -3.855312 -1.259337 4.563063 -2.423751 -0.489568 2.886782 -2.088749 10.002811 -0.876600 -0.938900 7.976600 -85.922771 6.160409 25.328084 22.350693 -34.449067 -6.924047 0.392237 -0.279525 3.654215 -7.125000 0.000000 0.000000 84.576603 -10.125185 -24.616406 -5.662443 10.554273 -0.156840 1.097583 -0.168026 14.827433 7.125000 0.000000 0.000000 
1.731591 17.591977 -21.463536 3.789196 6.658426 3.366471 -28.043520 -3.784384 8.503923 -0.346196 4.654512 13.357146 0.804009 -2.042115 -8.489569 0.243700 3.176900 8.771700 12.252465 10.575725 -31.768961 -0.485320 -6.400622 16.579792 1.888503 -15.196143 -11.563399 -0.038400 -1.265500 3.479700 0.601434 -3.997476 -1.235050 4.507280 -2.497276 -0.396582 2.622541 -1.919368 10.044013 -1.003600 -0.876900 8.062700 -86.073349 6.134280 24.878309 21.940973 -33.990621 -6.691021 0.393598 -0.283401 3.999143 -7.125000 0.000000 0.000000 84.432802 -9.854005 -25.341111 -5.634655 10.514181 -0.157304 1.090473 -0.147618 15.881152 7.125000 0.000000 0.000000 
1.713303 17.583701 -21.362796 3.195431 6.540519 3.321497 -27.314166 -3.746473 8.879559 -0.354083 4.623476 13.294053 0.719483 -1.683303 -8.093375 0.198000 2.865400 7.904300 12.890983 11.045700 -31.515570 -0.503582 -6.508967 16.882390 1.885962 -15.245102 -12.102301 -0.093300 -1.970100 5.423000 0.704638 -3.747822 -1.175472 4.607712 -2.384354 -0.364222 2.831145 -2.327215 9.921802 -0.952300 -1.055400 7.999300 -86.160963 6.289921 25.236503 21.815421 -33.848829 -6.616237 0.394561 -0.283854 4.188625 -7.125000 0.000000 0.000000 84.367021 -9.790250 -26.701628 -5.581685 10.453274 -0.140019 1.095441 -0.183481 16.629088 7.125000 0.000000 0.000000 
1.712996 17.579308 -21.243256 3.613010 6.883230 3.512600 -27.656894 -3.747442 9.315999 -0.352317 4.572818 13.169579 0.729853 -1.875646 -7.744415 0.242500 3.169100 8.750000 12.486810 10.438381 -31.655262 -0.549967 -6.617946 17.209680 1.888886 -15.182239 -11.486401 -0.041600 -1.317000 3.621600 0.713654 -3.989886 -1.163241 4.718202 -2.515879 -0.196547 3.075351 -1.821378 9.639350 -0.727500 -0.823700 7.891000 -86.489798 6.160314 24.697595 21.231655 -33.181611 -6.279805 0.396926 -0.288567 4.337354 -7.125000 0.000000 0.000000 84.048986 -9.728118 -25.663967 -5.598848 10.445265 -0.150182 1.092670 -0.119525 15.616458 7.125000 0.000000 0.000000 
1.714733 17.573791 -21.137407 3.375518 6.828456 3.550955 -27.496593 -4.162749 9.793091 -0.359070 4.582208 13.201007 0.713604 -1.686487 -8.022227 0.340400 3.749300 10.372500 12.827570 10.209662 -31.630828 -0.578142 -6.676738 17.385876 1.832305 -14.806632 -10.964674 -0.068800 -1.692600 4.656800 0.754973 -3.849355 -1.180824 4.616991 -2.433709 -0.385502 2.764845 -1.900670 9.779108 -0.910700 -0.876500 8.001100 -86.630490 6.275266 24.743848 20.792229 -32.651993 -6.038749 0.396102 -0.291490 4.689105 -7.125000 0.000000 0.000000 83.982885 -9.821000 -27.380388 -5.572480 10.456772 -0.145167 1.088728 -0.159242 16.724333 7.125000 0.000000 0.000000 
1.694605 17.570521 -21.016539 3.122785 7.040932 3.793153 -26.989205 -4.023639 9.757364 -0.361855 4.584820 13.211493 0.718137 -1.626443 -8.244474 0.150400 2.498800 6.886200 12.805026 10.849785 -31.336335 -0.590712 -6.748345 17.579369 1.881804 -15.094791 -11.137852 -0.114700 -2.183800 6.013900 0.808453 -3.960060 -1.144213 4.556567 -2.499679 -0.120679 2.865583 -1.850157 9.610920 -0.859200 -0.848900 7.906300 -86.691529 6.205943 24.522889 20.315739 -32.101780 -5.781114 0.398372 -0.296537 4.992841 -7.125000 0.000000 0.000000 83.999303 -9.762355 -26.530326 -5.653139 10.603273 -0.155763 1.102822 -0.126002 16.090951 7.125000 0.000000 0.000000 
1.689599 17.564391 -20.898940 3.272468 7.281870 3.916364 -27.106013 -4.227601 10.292237 -0.356540 4.550663 13.141796 0.715490 -1.776344 -7.788300 0.264400 3.308200 9.138000 12.632935 10.550380 -31.187024 -0.632461 -6.827154 17.840198 1.777096 -14.481114 -10.822064 -0.107400 -2.112700 5.817200 0.839067 -4.029131 -1.246427 4.644742 -2.514462 -0.504486 2.826931 -1.686939 9.619843 -0.852100 -0.778300 7.889100 -86.970086 6.595202 24.231462 19.823157 -31.483096 -5.505980 0.392523 -0.302868 5.621374 -7.125000 0.000000 0.000000 83.754140 -10.144777 -26.867916 -5.620919 10.543251 -0.147002 1.101046 -0.151333 16.219412 7.125000 0.000000 0.000000 
1.668756 17.574608 -20.786756 2.978124 7.399857 4.140448 -26.500043 -3.819199 10.176275 -0.338369 4.565808 13.199232 0.785641 -2.168710 -7.806570 0.222500 3.036300 8.379900 12.889985 10.863462 -30.925098 -0.660214 -6.900655 18.056470 1.698610 -14.020459 -10.657154 -0.071000 -1.718800 4.729200 0.904054 -4.118273 -1.203819 4.567810 -2.568004 -0.286247 2.348667 -2.243179 9.765001 -1.227000 -1.055400 8.009200 -87.035879 6.649647 24.087224 19.635396 -31.264200 -5.403970 0.395009 -0.304805 5.826884 -7.125000 0.000000 0.000000 83.618235 -9.861401 -26.261363 -5.622822 10.514732 -0.141406 1.111385 -0.117756 15.632613 7.125000 0.000000 0.000000 
1.662524 17.571338 -20.658634 3.209626 7.577003 4.320150 -26.677106 -3.833178 10.316658 -0.325494 4.630183 13.381005 0.706711 -1.813499 -7.508313 0.135000 2.367900 6.523500 12.690173 10.566477 -30.709059 -0.702263 -6.952646 18.242120 1.608898 -13.412651 -9.731339 -0.102000 -2.059100 5.669000 0.956396 -4.141902 -1.173205 4.891331 -2.600386 -0.065305 2.964679 -2.099888 9.398566 -0.860800 -0.965600 7.783600 -87.385062 6.777880 23.917613 19.272910 -30.838808 -5.215134 0.396373 -0.307782 6.063128 -7.125000 0.000000 0.000000 83.494441 -9.894574 -26.229873 -5.737762 10.769210 -0.170531 1.107767 -0.102387 15.617385 7.125000 0.000000 0.000000 
